HIERARCHY
ROOT joint_Root
{
	OFFSET 0.0 0.0 0.0
	CHANNELS 6 Xposition Yposition Zposition Zrotation Xrotation Yrotation 
	JOINT Hips
	{
		OFFSET 4.5925 91.4895 -427.239
		CHANNELS 6 Xposition Yposition Zposition Zrotation Xrotation Yrotation 
		JOINT Spine
		{
			OFFSET 15.7357 0.0 0.0
			CHANNELS 6 Xposition Yposition Zposition Zrotation Xrotation Yrotation 
			JOINT Chest
			{
				OFFSET 8.98455 -0.406207 0.0
				CHANNELS 6 Xposition Yposition Zposition Zrotation Xrotation Yrotation 
				JOINT Neck
				{
					OFFSET 16.3773 0.0 0.0
					CHANNELS 6 Xposition Yposition Zposition Zrotation Xrotation Yrotation 
					JOINT Head
					{
						OFFSET 6.45672 0.0 0.0
						CHANNELS 6 Xposition Yposition Zposition Zrotation Xrotation Yrotation 
						End Site
						{
							OFFSET 0.0 0.0 0.0
						}
					}
				}
				JOINT Shoulder_L
				{
					OFFSET 12.9942 -0.242716 4.98039
					CHANNELS 6 Xposition Yposition Zposition Zrotation Xrotation Yrotation 
					JOINT UpperArm_L
					{
						OFFSET 5.34809 0.0 0.0
						CHANNELS 6 Xposition Yposition Zposition Zrotation Xrotation Yrotation 
						JOINT LowerArm_L
						{
							OFFSET 24.3286 1.87007e-05 0.0
							CHANNELS 6 Xposition Yposition Zposition Zrotation Xrotation Yrotation 
							JOINT Hand_L
							{
								OFFSET 22.2916 0.0 0.0
								CHANNELS 6 Xposition Yposition Zposition Zrotation Xrotation Yrotation 
								End Site
								{
									OFFSET 0.0 0.0 0.0
								}
							}
						}
					}
				}
				JOINT Shoulder_R
				{
					OFFSET 12.9945 -0.242716 -4.98039
					CHANNELS 6 Xposition Yposition Zposition Zrotation Xrotation Yrotation 
					JOINT UpperArm_R
					{
						OFFSET -5.34813 0.0 0.0
						CHANNELS 6 Xposition Yposition Zposition Zrotation Xrotation Yrotation 
						JOINT LowerArm_R
						{
							OFFSET -24.3289 0.000322201 0.0
							CHANNELS 6 Xposition Yposition Zposition Zrotation Xrotation Yrotation 
							JOINT Hand_R
							{
								OFFSET -22.2915 -0.000108084 0.0
								CHANNELS 6 Xposition Yposition Zposition Zrotation Xrotation Yrotation 
								End Site
								{
									OFFSET 0.0 0.0 0.0
								}
							}
						}
					}
				}
			}
		}
		JOINT UpperLeg_L
		{
			OFFSET -2.19248 -6.46944 0.0
			CHANNELS 6 Xposition Yposition Zposition Zrotation Xrotation Yrotation 
			JOINT LowerLeg_L
			{
				OFFSET 39.0811 0.0 -1.23785e-05
				CHANNELS 6 Xposition Yposition Zposition Zrotation Xrotation Yrotation 
				JOINT Foot_L
				{
					OFFSET 40.9854 0.0 -1.26872e-05
					CHANNELS 6 Xposition Yposition Zposition Zrotation Xrotation Yrotation 
					JOINT Toes_L
					{
						OFFSET 11.7543 0.0 0.0
						CHANNELS 6 Xposition Yposition Zposition Zrotation Xrotation Yrotation 
						End Site
						{
							OFFSET 0.0 0.0 0.0
						}
					}
				}
			}
		}
		JOINT UpperLeg_R
		{
			OFFSET -2.19251 6.46944 0.0
			CHANNELS 6 Xposition Yposition Zposition Zrotation Xrotation Yrotation 
			JOINT LowerLeg_R
			{
				OFFSET -39.0811 -0.00228153 -0.0401928
				CHANNELS 6 Xposition Yposition Zposition Zrotation Xrotation Yrotation 
				JOINT Foot_R
				{
					OFFSET -40.9854 0.0 0.0
					CHANNELS 6 Xposition Yposition Zposition Zrotation Xrotation Yrotation 
					JOINT Toes_R
					{
						OFFSET -11.7543 0.0 0.0
						CHANNELS 6 Xposition Yposition Zposition Zrotation Xrotation Yrotation 
						End Site
						{
							OFFSET 0.0 0.0 0.0
						}
					}
				}
			}
		}
	}
}
MOTION
Frames:	9
Frame Time:	0.0333333
0.000000 0.000000 0.000000 0.000000 0.000000 -0.000000 -3.350260 91.139300 -1.381330 86.019300 -2.991820 3.466680 15.735700 0.000005 -0.000001 66.802100 85.313500 -70.129000 8.984550 -0.406207 -0.000000 0.758836 -3.487530 -6.626690 16.377300 -0.000001 -0.000001 4.815550 0.039036 4.425730 6.456720 -0.000001 -0.000000 -1.212880 4.639540 0.151150 12.994200 -0.242716 4.980390 -89.998700 -0.002976 -66.100700 5.348090 -0.000007 -0.000001 -69.037500 11.329700 -2.983640 24.328600 0.000019 0.000005 3.874020 7.562470 -27.231400 22.291600 -0.000001 0.000005 19.905600 5.223590 2.112900 12.994500 -0.242716 -4.980390 93.989200 -8.987680 -65.946600 -5.348130 -0.000001 -0.000004 -29.199000 -69.446300 -61.188300 -24.328900 0.000322 -0.000009 -20.591500 -15.290400 -54.933200 -22.291500 -0.000108 -0.000004 31.846600 5.581330 -10.202700 -2.192480 -6.469440 -0.000000 -170.716000 -9.678160 -7.343170 39.081100 -0.000007 -0.000012 -0.229003 0.384351 30.787600 40.985400 -0.000006 -0.000013 -2.450710 3.994890 -69.415900 11.754300 -0.000000 0.000003 -0.000144 -0.001404 -16.631000 -2.192510 6.469440 -0.000001 -178.024000 20.900000 174.726000 -39.081100 -0.002282 -0.040193 0.025870 -0.042222 28.120800 -40.985400 0.000008 0.000006 9.440590 15.066500 -69.948600 -11.754300 -0.000006 -0.000006 -0.004310 -0.054629 -18.795400
0.000000 0.000000 0.000000 0.000000 0.000000 -0.000000 -3.389590 90.996500 -1.434360 85.467900 -4.084120 3.874210 15.735700 0.000005 -0.000001 68.690000 85.186600 -72.423200 8.984550 -0.406207 -0.000000 1.109070 -3.280460 -7.429680 16.377300 -0.000001 -0.000001 3.875230 1.047770 2.936760 6.456720 -0.000001 -0.000000 -1.396790 4.721940 1.794350 12.994200 -0.242716 4.980390 -90.364000 0.819828 -66.060300 5.348090 -0.000007 -0.000001 -66.811800 11.795500 -3.023510 24.328600 0.000019 0.000005 3.910700 7.096770 -28.952100 22.291600 -0.000001 0.000005 17.115400 5.256450 1.262910 12.994500 -0.242716 -4.980390 92.752000 -7.182100 -68.973200 -5.348130 -0.000001 -0.000004 -20.258900 -59.443100 -43.901300 -24.328900 0.000322 -0.000009 -17.003800 -20.321500 -41.371400 -22.291500 -0.000108 -0.000004 26.038100 5.478110 -5.620230 -2.192480 -6.469440 -0.000000 -170.131000 -9.258880 -7.192990 39.081100 -0.000007 -0.000012 -0.243969 0.393712 31.785500 40.985400 -0.000006 -0.000013 -2.829470 2.746080 -70.034700 11.754300 -0.000000 0.000003 -0.000172 -0.001629 -16.639300 -2.192510 6.469440 -0.000001 -177.618000 20.545000 175.066000 -39.081100 -0.002282 -0.040193 0.025651 -0.041346 28.389200 -40.985400 0.000008 0.000006 9.760920 15.612000 -70.412900 -11.754300 -0.000006 -0.000006 -0.004095 -0.052424 -18.705600
0.000000 0.000000 0.000000 0.000000 0.000000 -0.000000 -3.450210 90.877900 -1.518460 85.094500 -5.239220 3.924840 15.735700 0.000005 -0.000001 70.376500 85.147800 -74.596000 8.984550 -0.406207 -0.000000 1.279790 -3.019190 -8.399100 16.377300 -0.000001 -0.000001 3.012370 1.690820 1.744290 6.456720 -0.000001 -0.000000 -1.680640 4.768470 3.033300 12.994200 -0.242716 4.980390 -90.739700 1.691430 -66.373700 5.348090 -0.000007 -0.000001 -64.386600 11.536100 -3.153410 24.328600 0.000019 0.000005 6.066170 10.452400 -30.361100 22.291600 -0.000001 0.000005 15.365500 5.237120 1.770590 12.994500 -0.242716 -4.980390 91.599100 -5.096030 -72.557700 -5.348130 -0.000001 -0.000004 -23.763900 -50.782100 -37.339200 -24.328900 0.000322 -0.000009 -15.899800 -31.065400 -28.918800 -22.291500 -0.000108 -0.000004 23.985200 5.372570 -2.088350 -2.192480 -6.469440 -0.000000 -169.532000 -10.464400 -7.259540 39.081100 -0.000007 -0.000012 -0.247346 0.387532 32.548900 40.985400 -0.000006 -0.000013 -2.848850 2.917030 -70.424700 11.754300 -0.000000 0.000003 -0.000173 -0.001641 -16.639700 -2.192510 6.469440 -0.000001 -177.014000 19.026900 174.935000 -39.081100 -0.002282 -0.040193 0.027558 -0.044379 28.656800 -40.985400 0.000008 0.000006 9.920920 15.106200 -70.719000 -11.754300 -0.000006 -0.000006 -0.004244 -0.053954 -18.767900
0.000000 0.000000 0.000000 0.000000 0.000000 -0.000000 -3.520800 90.808500 -1.652070 84.991600 -5.793530 4.058640 15.735700 0.000005 -0.000001 72.596300 85.051100 -77.202100 8.984550 -0.406207 -0.000000 1.588380 -2.711120 -9.166570 16.377300 -0.000001 -0.000001 2.042010 2.059740 1.029130 6.456720 -0.000001 -0.000000 -1.731060 4.691180 2.949550 12.994200 -0.242716 4.980390 -91.008000 2.357060 -66.838600 5.348090 -0.000007 -0.000001 -62.728500 11.665700 -3.834940 24.328600 0.000019 0.000005 6.644460 11.826500 -29.613100 22.291600 -0.000001 0.000005 15.829900 5.221130 2.183930 12.994500 -0.242716 -4.980390 90.711400 -2.520450 -74.233700 -5.348130 -0.000001 -0.000004 -34.447500 -47.476500 -36.065800 -24.328900 0.000322 -0.000009 -17.919300 -43.381600 -25.209800 -22.291500 -0.000108 -0.000004 26.074500 5.136160 4.241000 -2.192480 -6.469440 -0.000000 -169.287000 -10.909800 -7.257680 39.081100 -0.000007 -0.000012 -0.252657 0.389911 32.943100 40.985400 -0.000006 -0.000013 -2.919220 2.887400 -70.566800 11.754300 -0.000000 0.000003 -0.000178 -0.001678 -16.641000 -2.192510 6.469440 -0.000001 -176.821000 18.550200 174.846000 -39.081100 -0.002282 -0.040193 0.028940 -0.046342 28.950700 -40.985400 0.000008 0.000006 10.164700 15.074600 -70.938200 -11.754300 -0.000006 -0.000006 -0.003980 -0.051237 -18.657300
0.000000 0.000000 0.000000 0.000000 0.000000 -0.000000 -3.519700 90.709100 -1.712420 85.089700 -5.733540 4.440020 15.735700 0.000005 -0.000001 73.729100 84.820800 -78.489500 8.984550 -0.406207 -0.000000 2.086870 -2.664910 -9.464140 16.377300 -0.000001 -0.000001 1.424400 2.442070 0.270020 6.456720 -0.000001 -0.000000 -1.976190 4.929130 2.835340 12.994200 -0.242716 4.980390 -91.133200 2.721650 -67.385100 5.348090 -0.000007 -0.000001 -62.643500 10.811500 -4.151560 24.328600 0.000019 0.000005 6.010480 11.519300 -27.798800 22.291600 -0.000001 0.000005 16.669800 5.200600 2.703870 12.994500 -0.242716 -4.980390 89.967500 0.115961 -74.363900 -5.348130 -0.000001 -0.000004 -40.964900 -45.904400 -34.943900 -24.328900 0.000322 -0.000009 -15.900700 -42.464000 -22.876100 -22.291500 -0.000108 -0.000004 26.641200 4.949950 8.366710 -2.192480 -6.469440 -0.000000 -169.362000 -10.511600 -7.175170 39.081100 -0.000007 -0.000012 -0.260314 0.394808 33.399100 40.985400 -0.000006 -0.000013 -2.988570 2.637600 -70.766400 11.754300 -0.000000 0.000003 -0.000182 -0.001710 -16.642200 -2.192510 6.469440 -0.000001 -177.065000 18.869500 175.011000 -39.081100 -0.002282 -0.040193 0.028287 -0.044341 29.399300 -40.985400 0.000008 0.000006 10.328000 15.199300 -71.405500 -11.754300 -0.000006 -0.000006 -0.003773 -0.049054 -18.568400
0.000000 0.000000 0.000000 0.000000 0.000000 -0.000000 -3.384530 90.622200 -1.699250 85.272500 -5.851770 4.733360 15.735700 0.000005 -0.000001 73.769000 84.637600 -78.500900 8.984550 -0.406207 -0.000000 2.436950 -2.775820 -9.396330 16.377300 -0.000001 -0.000001 1.199400 2.386360 0.249079 6.456720 -0.000001 -0.000000 -2.205640 5.016520 2.629720 12.994200 -0.242716 4.980390 -91.243600 3.000120 -67.472200 5.348090 -0.000007 -0.000001 -63.096400 10.505700 -4.190020 24.328600 0.000019 0.000005 4.864000 10.228400 -25.603800 22.291600 -0.000001 0.000005 17.481200 5.184810 3.097020 12.994500 -0.242716 -4.980390 89.774200 0.788909 -74.029100 -5.348130 -0.000001 -0.000004 -42.362700 -43.665200 -34.598600 -24.328900 0.000322 -0.000009 -14.815000 -39.864000 -22.421700 -22.291500 -0.000108 -0.000004 26.910600 4.884490 9.685050 -2.192480 -6.469440 -0.000000 -169.578000 -10.603000 -7.030990 39.081100 -0.000007 -0.000012 -0.259708 0.388564 33.758500 40.985400 -0.000006 -0.000013 -2.885300 2.619350 -70.989100 11.754300 -0.000000 0.000003 -0.000179 -0.001686 -16.641400 -2.192510 6.469440 -0.000001 -177.296000 18.082700 175.000000 -39.081100 -0.002282 -0.040193 0.030338 -0.046915 29.953800 -40.985400 0.000008 0.000006 10.244100 14.496300 -71.665400 -11.754300 -0.000006 -0.000006 -0.003957 -0.050996 -18.647500
0.000000 0.000000 0.000000 0.000000 0.000000 -0.000000 -3.128000 90.608400 -1.645070 85.504300 -6.282680 4.790850 15.735700 0.000005 -0.000001 72.773600 84.602600 -77.399800 8.984550 -0.406207 -0.000000 2.444140 -2.979970 -9.180670 16.377300 -0.000001 -0.000001 1.536750 2.251280 0.782391 6.456720 -0.000001 -0.000000 -2.139320 5.286090 2.773160 12.994200 -0.242716 4.980390 -91.266400 3.041530 -67.382700 5.348090 -0.000007 -0.000001 -63.870100 10.952700 -3.840470 24.328600 0.000019 0.000005 4.329870 10.059000 -23.436300 22.291600 -0.000001 0.000005 18.049800 5.181850 3.170230 12.994500 -0.242716 -4.980390 89.951900 0.163443 -73.595200 -5.348130 -0.000001 -0.000004 -44.631000 -46.235500 -40.275500 -24.328900 0.000322 -0.000009 -16.770200 -40.711100 -24.796200 -22.291500 -0.000108 -0.000004 26.625900 4.819140 10.953400 -2.192480 -6.469440 -0.000000 -169.917000 -11.164500 -6.848580 39.081100 -0.000007 -0.000012 -0.256376 0.383705 33.749700 40.985400 -0.000006 -0.000013 -2.668530 2.691310 -71.076900 11.754300 -0.000000 0.000003 -0.000190 -0.001777 -16.644700 -2.192510 6.469440 -0.000001 -177.533000 16.822600 174.820000 -39.081100 -0.002282 -0.040193 0.033050 -0.050927 30.291100 -40.985400 0.000008 0.000006 10.046600 13.773100 -71.613800 -11.754300 -0.000006 -0.000006 -0.003719 -0.048482 -18.545100
0.000000 0.000000 0.000000 0.000000 0.000000 -0.000000 -2.833070 90.670400 -1.520830 85.793800 -6.528960 4.772810 15.735700 0.000005 -0.000001 71.599000 84.661400 -76.017800 8.984550 -0.406207 -0.000000 2.262270 -3.156170 -8.767830 16.377300 -0.000001 -0.000001 2.308510 2.071030 1.211860 6.456720 -0.000001 -0.000000 -1.693260 5.326700 2.977710 12.994200 -0.242716 4.980390 -91.229100 2.930430 -67.233700 5.348090 -0.000007 -0.000001 -64.779200 12.434500 -3.640480 24.328600 0.000019 0.000005 3.998190 10.497500 -20.988700 22.291600 -0.000001 0.000005 17.306500 5.186300 3.060610 12.994500 -0.242716 -4.980390 90.384500 -1.280140 -73.282200 -5.348130 -0.000001 -0.000004 -44.394300 -51.019800 -47.347600 -24.328900 0.000322 -0.000009 -20.801200 -40.257300 -30.447800 -22.291500 -0.000108 -0.000004 25.726800 4.962950 8.093660 -2.192480 -6.469440 -0.000000 -170.334000 -11.844300 -6.540600 39.081100 -0.000007 -0.000012 -0.256110 0.389436 33.331100 40.985400 -0.000006 -0.000013 -2.372900 2.942470 -70.983000 11.754300 -0.000000 0.000003 -0.000192 -0.001791 -16.645200 -2.192510 6.469440 -0.000001 -178.022000 16.470100 174.875000 -39.081100 -0.002282 -0.040193 0.032220 -0.049731 30.177600 -40.985400 0.000008 0.000006 9.791400 13.828600 -71.485500 -11.754300 -0.000006 -0.000006 -0.003951 -0.050925 -18.644600
0.000000 0.000000 0.000000 0.000000 0.000000 -0.000000 -2.579770 90.784000 -1.318190 86.056300 -6.427130 4.723290 15.735700 0.000005 -0.000001 71.484000 84.724400 -75.587300 8.984550 -0.406207 -0.000000 2.142690 -3.147380 -8.141010 16.377300 -0.000001 -0.000001 3.141690 1.701230 1.728800 6.456720 -0.000001 -0.000000 -1.476880 5.262660 2.650780 12.994200 -0.242716 4.980390 -91.142000 2.704990 -67.100800 5.348090 -0.000007 -0.000001 -65.622700 14.378200 -3.916170 24.328600 0.000019 0.000005 4.043260 12.040000 -18.720800 22.291600 -0.000001 0.000005 15.213100 5.175210 3.335350 12.994500 -0.242716 -4.980390 91.092000 -3.459630 -72.472800 -5.348130 -0.000001 -0.000004 -43.007300 -57.353800 -54.781800 -24.328900 0.000322 -0.000009 -26.429500 -36.890700 -39.626400 -22.291500 -0.000108 -0.000004 26.298800 5.181540 3.185910 -2.192480 -6.469440 -0.000000 -170.740000 -12.238900 -6.129530 39.081100 -0.000007 -0.000012 -0.240259 0.375344 32.623900 40.985400 -0.000006 -0.000013 -2.077060 3.309300 -70.787500 11.754300 -0.000000 0.000003 -0.000180 -0.001697 -16.641700 -2.192510 6.469440 -0.000001 -178.557000 16.771100 175.150000 -39.081100 -0.002282 -0.040193 0.030694 -0.047961 29.731100 -40.985400 0.000008 0.000006 9.593140 14.168300 -71.283800 -11.754300 -0.000006 -0.000006 -0.003862 -0.049994 -18.606600
